<svg xmlns="http://www.w3.org/2000/svg" viewBox="0 0 688 200" width="688" height="200">
<defs>
  <linearGradient id="body" x1="0" y1="0" x2="0" y2="1">
    <stop offset="0" stop-color="#F4DE97"/><stop offset="1" stop-color="#C0923F"/>
  </linearGradient>
  <linearGradient id="txt" x1="0" y1="0" x2="0" y2="1">
    <stop offset="0" stop-color="#ECCB7C"/><stop offset="1" stop-color="#C0923F"/>
  </linearGradient>
</defs>
<g transform="translate(40,32) scale(1.0)">
  <path d="M66 0 L42 0 Q0 0 0 42 L0 90 Q0 132 42 132 L90 132 Q132 132 132 90 L132 42 Q132 0 90 0 Z" fill="url(#body)"/>
  <path d="M66 4 L44 4 Q4 4 4 44 L4 64 L128 64 L128 44 Q128 4 88 4 Z" fill="#fff" opacity="0.14"/>
  <rect x="3" y="3" width="126" height="126" rx="39" fill="none" stroke="#000" stroke-opacity="0.18" stroke-width="5"/>
  <line x1="66" y1="12" x2="66" y2="120" stroke="#211B10" stroke-width="6.5" stroke-linecap="round" stroke-dasharray="1.5 14" opacity="0.85"/>
  <path d="M104 18 C105.5 24 107 25.5 113 27 C107 28.5 105.5 30 104 36 C102.5 30 101 28.5 95 27 C101 25.5 102.5 24 104 18 Z" fill="#F4EEE0"/>
  <ellipse cx="40" cy="84" rx="9" ry="5.5" fill="#A9772E" opacity="0.55"/>
  <ellipse cx="92" cy="84" rx="9" ry="5.5" fill="#A9772E" opacity="0.55"/>
  <ellipse cx="46" cy="62" rx="7.5" ry="9.5" fill="#211B10"/>
  <ellipse cx="86" cy="62" rx="7.5" ry="9.5" fill="#211B10"/>
  <circle cx="48.7" cy="58.5" r="2.6" fill="#fff" opacity="0.9"/>
  <circle cx="88.7" cy="58.5" r="2.6" fill="#fff" opacity="0.9"/>
  <path d="M52 80 Q66 92 80 80" fill="none" stroke="#211B10" stroke-width="5.5" stroke-linecap="round"/>
</g>
  <g transform="translate(205.00,130)" fill="#F4EEE0"><path d="M221 -17Q194 -17 162.5 -11.0Q131 -5 101.0 6.5Q71 18 51.0 33.5Q31 49 28 69Q26 79 28.5 90.5Q31 102 38.0 114.5Q45 127 55 141Q63 152 73.0 155.0Q83 158 96 154Q112 151 128.5 143.5Q145 136 161.5 127.5Q178 119 196.0 112.5Q214 106 233 106Q261 106 276.5 114.5Q292 123 292 138Q292 149 285.5 156.0Q279 163 267.5 168.5Q256 174 241.0 178.0Q226 182 208.5 186.5Q191 191 173 196Q148 203 125.0 214.0Q102 225 83.0 242.5Q64 260 53.0 285.5Q42 311 42 348Q42 397 65.0 430.0Q88 463 132.0 480.5Q176 498 239 498Q257 498 275.0 496.0Q293 494 310.5 489.0Q328 484 345.0 477.0Q362 470 379 460Q409 446 410.0 422.0Q411 398 393 373Q382 356 370.0 348.5Q358 341 345 344Q329 348 310.5 357.0Q292 366 271.5 374.0Q251 382 231 382Q214 382 202.0 377.5Q190 373 184.0 365.5Q178 358 178 348Q178 335 185.5 327.5Q193 320 206.0 315.0Q219 310 236.0 306.0Q253 302 273 298Q300 293 328.5 284.5Q357 276 380.5 260.0Q404 244 418.5 217.0Q433 190 433 146Q433 67 378.0 25.0Q323 -17 221 -17Z" transform="translate(0.000,0) scale(0.09600,-0.09600)"/><path d="M256 -8Q210 -8 169.5 10.0Q129 28 99.0 60.5Q69 93 52.5 137.5Q36 182 36 235V416Q36 436 40.0 453.0Q44 470 59.5 481.0Q75 492 112 492Q149 492 164.5 481.0Q180 470 183.5 452.5Q187 435 187 415V235Q187 206 197.5 184.5Q208 163 228.5 152.0Q249 141 277 141Q306 141 326.5 152.5Q347 164 358.5 185.0Q370 206 370 235V417Q370 437 374.0 454.0Q378 471 393.5 481.5Q409 492 446 492Q483 492 498.5 481.0Q514 470 517.5 452.5Q521 435 521 416V64Q521 45 517.5 28.5Q514 12 498.0 2.0Q482 -8 446 -8Q419 -8 404.0 -2.0Q389 4 382.0 13.0Q375 22 373.5 32.0Q372 42 372 50L385 61Q382 57 372.0 46.0Q362 35 345.5 22.5Q329 10 307.0 1.0Q285 -8 256 -8Z" transform="translate(43.968,0) scale(0.09600,-0.09600)"/><path d="M309 -8Q260 -8 222.5 12.5Q185 33 160.5 68.0Q136 103 123.5 148.0Q111 193 112 244Q112 293 125.0 338.0Q138 383 162.5 417.0Q187 451 223.5 470.5Q260 490 309 490Q353 490 394.5 470.0Q436 450 468.0 415.5Q500 381 518.5 336.5Q537 292 537 243Q537 192 518.5 146.5Q500 101 468.0 66.0Q436 31 395.0 11.5Q354 -8 309 -8ZM288 140Q316 140 338.0 153.5Q360 167 373.5 190.0Q387 213 387 241Q387 270 374.0 292.5Q361 315 339.0 328.0Q317 341 289 341Q262 341 239.5 328.0Q217 315 204.5 292.5Q192 270 192 241Q192 213 205.0 190.0Q218 167 240.0 153.5Q262 140 288 140ZM114 -9Q78 -9 62.0 2.0Q46 13 42.5 30.5Q39 48 39 67V642Q39 663 43.0 680.0Q47 697 62.5 707.5Q78 718 115 718Q151 718 166.0 707.0Q181 696 184.0 678.5Q187 661 186 642V36Q181 13 165.0 2.0Q149 -9 114 -9Z" transform="translate(97.728,0) scale(0.09600,-0.09600)"/><path d="M221 -17Q194 -17 162.5 -11.0Q131 -5 101.0 6.5Q71 18 51.0 33.5Q31 49 28 69Q26 79 28.5 90.5Q31 102 38.0 114.5Q45 127 55 141Q63 152 73.0 155.0Q83 158 96 154Q112 151 128.5 143.5Q145 136 161.5 127.5Q178 119 196.0 112.5Q214 106 233 106Q261 106 276.5 114.5Q292 123 292 138Q292 149 285.5 156.0Q279 163 267.5 168.5Q256 174 241.0 178.0Q226 182 208.5 186.5Q191 191 173 196Q148 203 125.0 214.0Q102 225 83.0 242.5Q64 260 53.0 285.5Q42 311 42 348Q42 397 65.0 430.0Q88 463 132.0 480.5Q176 498 239 498Q257 498 275.0 496.0Q293 494 310.5 489.0Q328 484 345.0 477.0Q362 470 379 460Q409 446 410.0 422.0Q411 398 393 373Q382 356 370.0 348.5Q358 341 345 344Q329 348 310.5 357.0Q292 366 271.5 374.0Q251 382 231 382Q214 382 202.0 377.5Q190 373 184.0 365.5Q178 358 178 348Q178 335 185.5 327.5Q193 320 206.0 315.0Q219 310 236.0 306.0Q253 302 273 298Q300 293 328.5 284.5Q357 276 380.5 260.0Q404 244 418.5 217.0Q433 190 433 146Q433 67 378.0 25.0Q323 -17 221 -17Z" transform="translate(151.776,0) scale(0.09600,-0.09600)"/></g>
  <g transform="translate(400.74,130)" fill="url(#txt)"><path d="M221 -17Q194 -17 162.5 -11.0Q131 -5 101.0 6.5Q71 18 51.0 33.5Q31 49 28 69Q26 79 28.5 90.5Q31 102 38.0 114.5Q45 127 55 141Q63 152 73.0 155.0Q83 158 96 154Q112 151 128.5 143.5Q145 136 161.5 127.5Q178 119 196.0 112.5Q214 106 233 106Q261 106 276.5 114.5Q292 123 292 138Q292 149 285.5 156.0Q279 163 267.5 168.5Q256 174 241.0 178.0Q226 182 208.5 186.5Q191 191 173 196Q148 203 125.0 214.0Q102 225 83.0 242.5Q64 260 53.0 285.5Q42 311 42 348Q42 397 65.0 430.0Q88 463 132.0 480.5Q176 498 239 498Q257 498 275.0 496.0Q293 494 310.5 489.0Q328 484 345.0 477.0Q362 470 379 460Q409 446 410.0 422.0Q411 398 393 373Q382 356 370.0 348.5Q358 341 345 344Q329 348 310.5 357.0Q292 366 271.5 374.0Q251 382 231 382Q214 382 202.0 377.5Q190 373 184.0 365.5Q178 358 178 348Q178 335 185.5 327.5Q193 320 206.0 315.0Q219 310 236.0 306.0Q253 302 273 298Q300 293 328.5 284.5Q357 276 380.5 260.0Q404 244 418.5 217.0Q433 190 433 146Q433 67 378.0 25.0Q323 -17 221 -17Z" transform="translate(0.000,0) scale(0.09600,-0.09600)"/><path d="M112 -9Q76 -9 60.0 1.5Q44 12 40.5 29.5Q37 47 37 67V643Q37 663 41.0 680.0Q45 697 61.0 707.5Q77 718 113 718Q150 718 165.5 707.0Q181 696 184.5 679.0Q188 662 188 642V438Q206 457 234.5 474.0Q263 491 302 491Q364 491 413.5 459.5Q463 428 492.5 373.0Q522 318 522 247V66Q522 46 518.0 29.0Q514 12 499.0 1.5Q484 -9 446 -9Q411 -9 394.5 1.5Q378 12 374.5 29.5Q371 47 371 67V248Q371 277 361.0 297.5Q351 318 331.5 330.0Q312 342 284 342Q247 342 219.5 319.5Q192 297 188 265V66Q188 46 184.0 29.0Q180 12 164.5 1.5Q149 -9 112 -9Z" transform="translate(43.968,0) scale(0.09600,-0.09600)"/><path d="M449 -8Q412 -8 394.5 5.0Q377 18 377 37L387 54Q381 44 364.0 29.5Q347 15 320.0 3.5Q293 -8 253 -8Q207 -8 165.5 12.0Q124 32 92.0 67.5Q60 103 41.5 148.0Q23 193 23 243Q23 292 41.5 336.5Q60 381 92.5 415.5Q125 450 166.0 470.0Q207 490 253 490Q290 490 316.0 479.5Q342 469 359.5 455.0Q377 441 386 428L378 442Q377 466 394.5 478.5Q412 491 450 491Q486 491 501.5 480.0Q517 469 520.5 451.0Q524 433 524 413V68Q524 49 520.5 31.0Q517 13 501.5 2.5Q486 -8 449 -8ZM275 141Q301 141 322.5 154.5Q344 168 356.5 191.0Q369 214 369 242Q369 271 356.0 293.5Q343 316 321.0 329.5Q299 343 273 343Q244 343 221.5 329.0Q199 315 185.5 292.0Q172 269 172 240Q172 213 185.5 190.5Q199 168 222.5 154.5Q246 141 275 141Z" transform="translate(97.152,0) scale(0.09600,-0.09600)"/><path d="M116 -9Q79 -9 63.5 1.5Q48 12 44.5 30.0Q41 48 41 67V416Q41 436 45.0 453.0Q49 470 64.5 480.5Q80 491 117 491Q152 491 167.5 481.5Q183 472 187.0 459.5Q191 447 191 438L179 432Q181 436 189.5 446.5Q198 457 213.0 468.5Q228 480 249.5 488.0Q271 496 299 496Q310 496 323.5 494.5Q337 493 351.5 488.5Q366 484 378.0 476.5Q390 469 397.5 458.0Q405 447 405 431Q405 390 386.0 361.5Q367 333 338 333Q321 333 314.0 336.0Q307 339 302.5 342.0Q298 345 292.0 347.5Q286 350 270 350Q255 350 241.5 346.0Q228 342 216.5 333.5Q205 325 198.5 312.5Q192 300 192 285V65Q192 46 188.5 28.5Q185 11 169.0 1.0Q153 -9 116 -9Z" transform="translate(151.200,0) scale(0.09600,-0.09600)"/><path d="M289 -18Q219 -18 168.5 5.0Q118 28 86.0 65.5Q54 103 38.5 149.0Q23 195 23 241Q23 316 57.0 374.0Q91 432 151.0 465.5Q211 499 289 499Q347 499 389.5 480.5Q432 462 459.5 432.5Q487 403 500.5 369.0Q514 335 514 304Q514 249 487.5 222.5Q461 196 420 196H182Q184 170 200.5 152.0Q217 134 242.0 124.0Q267 114 295 114Q319 114 337.0 116.5Q355 119 368.0 123.5Q381 128 392.0 132.5Q403 137 411.5 140.0Q420 143 428 144Q443 145 455.5 135.5Q468 126 478 107Q485 96 487.5 86.0Q490 76 490 66Q490 42 465.5 23.0Q441 4 396.5 -7.0Q352 -18 289 -18ZM182 278H340Q356 278 363.5 283.5Q371 289 371 305Q371 323 360.0 336.5Q349 350 330.5 357.5Q312 365 288 365Q257 365 233.0 353.0Q209 341 195.5 321.0Q182 301 182 278Z" transform="translate(191.808,0) scale(0.09600,-0.09600)"/></g>
</svg>
